<svg width="40" height="41" viewBox="0 0 40 41" fill="none" xmlns="http://www.w3.org/2000/svg">
<path d="M8.75016 7.63712H31.2502C32.6337 7.63702 33.9649 8.16637 34.9705 9.11657C35.9762 10.0668 36.5802 11.3658 36.6585 12.7471L36.6668 13.0538V28.8871C36.6669 30.2707 36.1376 31.6018 35.1874 32.6075C34.2372 33.6132 32.9382 34.2171 31.5568 34.2955L31.2502 34.3038H8.75016C7.3666 34.3039 6.03545 33.7745 5.02978 32.8243C4.02411 31.8741 3.42016 30.5751 3.34183 29.1938L3.3335 28.8871V13.0538C3.33341 11.6702 3.86275 10.3391 4.81295 9.3334C5.76314 8.32773 7.06215 7.72378 8.4435 7.64545L8.75016 7.63712ZM34.1668 16.5921L20.5835 23.7421C20.4301 23.8231 20.2616 23.8714 20.0885 23.8837C19.9155 23.896 19.7418 23.8722 19.5785 23.8138L19.4185 23.7438L5.8335 16.5938V28.8871C5.83352 29.6191 6.10878 30.3243 6.60463 30.8628C7.10048 31.4012 7.78066 31.7335 8.51016 31.7938L8.75016 31.8038H31.2502C31.9824 31.8037 32.6878 31.5282 33.2263 31.032C33.7648 30.5358 34.097 29.8552 34.1568 29.1254L34.1668 28.8871V16.5921ZM31.2502 10.1371H8.75016C8.01818 10.1371 7.31297 10.4124 6.77451 10.9082C6.23606 11.4041 5.90373 12.0843 5.8435 12.8138L5.8335 13.0538V13.7688L20.0002 21.2254L34.1668 13.7671V13.0538C34.1668 12.3215 33.8913 11.6161 33.3951 11.0776C32.8989 10.5391 32.2183 10.207 31.4885 10.1471L31.2502 10.1371Z" fill="black"/>
</svg>
