<svg width="40" height="41" viewBox="0 0 40 41" fill="none" xmlns="http://www.w3.org/2000/svg">
<path d="M6.5625 4.72046C5.48506 4.72046 4.45175 5.14847 3.68988 5.91034C2.92801 6.6722 2.5 7.70552 2.5 8.78296V29.408C2.5 30.4854 2.92801 31.5187 3.68988 32.2806C4.45175 33.0424 5.48506 33.4705 6.5625 33.4705H7.6575C7.93555 34.5433 8.56196 35.4934 9.43842 36.1716C10.3149 36.8499 11.3918 37.2179 12.5 37.2179C13.6082 37.2179 14.6851 36.8499 15.5616 36.1716C16.438 35.4934 17.0645 34.5433 17.3425 33.4705H20.1575C20.4355 34.5433 21.062 35.4934 21.9384 36.1716C22.8149 36.8499 23.8918 37.2179 25 37.2179C26.1082 37.2179 27.1851 36.8499 28.0616 36.1716C28.938 35.4934 29.5645 34.5433 29.8425 33.4705H33.4375C34.5149 33.4705 35.5483 33.0424 36.3101 32.2806C37.072 31.5187 37.5 30.4854 37.5 29.408V20.298C37.5 19.748 37.3875 19.203 37.1712 18.698L34.38 12.183C34.0668 11.452 33.5459 10.829 32.882 10.3913C32.2181 9.95354 31.4403 9.72029 30.645 9.72046H27.5V8.78296C27.5 8.24946 27.3949 7.72119 27.1908 7.22831C26.9866 6.73542 26.6874 6.28758 26.3101 5.91034C25.9329 5.5331 25.485 5.23386 24.9922 5.0297C24.4993 4.82554 23.971 4.72046 23.4375 4.72046H6.5625ZM29.8425 30.9705C29.6764 30.327 29.3837 29.723 28.9815 29.194C28.5793 28.6649 28.0756 28.2213 27.5 27.8892V20.9705H35V25.9705H32.5C32.1685 25.9705 31.8505 26.1022 31.6161 26.3366C31.3817 26.571 31.25 26.8889 31.25 27.2205C31.25 27.552 31.3817 27.8699 31.6161 28.1043C31.8505 28.3388 32.1685 28.4705 32.5 28.4705H35V29.408C35 30.2705 34.3 30.9705 33.4375 30.9705H29.8425ZM25 27.2205C23.8913 27.2202 22.814 27.5884 21.9374 28.2672C21.0608 28.946 20.4347 29.897 20.1575 30.9705H17.3425C17.0645 29.8977 16.438 28.9476 15.5616 28.2693C14.6851 27.591 13.6082 27.223 12.5 27.223C11.3918 27.223 10.3149 27.591 9.43842 28.2693C8.56196 28.9476 7.93555 29.8977 7.6575 30.9705H6.5625C5.7 30.9705 5 30.2705 5 29.408V8.78296C5 7.92046 5.7 7.22046 6.5625 7.22046H23.4375C24.3 7.22046 25 7.92046 25 8.78296V27.2205ZM22.835 30.9705C23.1102 30.4939 23.5349 30.1214 24.0434 29.9108C24.5518 29.7003 25.1155 29.6633 25.6471 29.8058C26.1786 29.9482 26.6483 30.262 26.9834 30.6986C27.3184 31.1352 27.5 31.6701 27.5 32.2205C27.5 32.8835 27.2366 33.5194 26.7678 33.9882C26.2989 34.4571 25.663 34.7205 25 34.7205C24.337 34.7205 23.7011 34.4571 23.2322 33.9882C22.7634 33.5194 22.5 32.8835 22.5 32.2205C22.5 31.7655 22.6213 31.338 22.835 30.9705ZM12.5 34.7205C12.1652 34.7312 11.8317 34.6746 11.5192 34.5539C11.2067 34.4333 10.9217 34.2511 10.681 34.0181C10.4403 33.7852 10.2489 33.5062 10.1181 33.1978C9.98736 32.8895 9.91988 32.558 9.91971 32.223C9.91955 31.888 9.98669 31.5565 10.1172 31.248C10.2476 30.9395 10.4388 30.6603 10.6792 30.4271C10.9197 30.1939 11.2045 30.0114 11.5169 29.8905C11.8292 29.7695 12.1627 29.7125 12.4975 29.723C13.1465 29.7432 13.7623 30.0151 14.2143 30.4813C14.6664 30.9474 14.9194 31.5711 14.9197 32.2205C14.92 32.8699 14.6677 33.4939 14.2161 33.9604C13.7645 34.427 13.149 34.6996 12.5 34.7205ZM27.5 18.4705V12.2205H30.645C31.27 12.2205 31.835 12.593 32.0825 13.168L34.3525 18.4705H27.5Z" fill="black"/>
</svg>
