<svg width="25" height="25" viewBox="0 0 25 25" fill="none" xmlns="http://www.w3.org/2000/svg">
<mask id="mask0_63_94" style="mask-type:luminance" maskUnits="userSpaceOnUse" x="0" y="0" width="25" height="25">
<path d="M24.5 0.0267334H0.5V24.0267H24.5V0.0267334Z" fill="white"/>
</mask>
<g mask="url(#mask0_63_94)">
<path d="M18.5 17.2767H6.92139C6.74574 17.2767 6.57567 17.2151 6.44082 17.1025C6.30597 16.99 6.2149 16.8337 6.18348 16.6609L3.68015 2.89257C3.64873 2.71976 3.55766 2.56346 3.42281 2.45092C3.28796 2.33837 3.11789 2.27673 2.94225 2.27673H1.25" stroke="white" stroke-width="2" stroke-linecap="round" stroke-linejoin="round"/>
<path d="M7.25 21.0267C8.28553 21.0267 9.125 20.1872 9.125 19.1517C9.125 18.1162 8.28553 17.2767 7.25 17.2767C6.21447 17.2767 5.375 18.1162 5.375 19.1517C5.375 20.1872 6.21447 21.0267 7.25 21.0267Z" stroke="white" stroke-width="2" stroke-linecap="round" stroke-linejoin="round"/>
<path d="M18.5 21.0267C19.5355 21.0267 20.375 20.1872 20.375 19.1517C20.375 18.1162 19.5355 17.2767 18.5 17.2767C17.4645 17.2767 16.625 18.1162 16.625 19.1517C16.625 20.1872 17.4645 21.0267 18.5 21.0267Z" stroke="white" stroke-width="2" stroke-linecap="round" stroke-linejoin="round"/>
<path d="M4.25 6.02673H20.6013C20.7112 6.02673 20.8197 6.05086 20.9192 6.09742C21.0187 6.14398 21.1068 6.21183 21.1772 6.29617C21.2475 6.38051 21.2985 6.47928 21.3266 6.58551C21.3546 6.69173 21.3589 6.80281 21.3392 6.91089L20.112 13.6609C20.0806 13.8337 19.9895 13.99 19.8546 14.1025C19.7198 14.2151 19.5497 14.2767 19.3741 14.2767H5.75" stroke="white" stroke-width="2" stroke-linecap="round" stroke-linejoin="round"/>
</g>
</svg>
