<svg width="40" height="41" viewBox="0 0 40 41" fill="none" xmlns="http://www.w3.org/2000/svg">
<path d="M9.28479 14.1154C8.80729 10.9704 11.0248 8.14545 14.4123 7.11045C15.0134 6.92789 15.6615 6.98079 16.2251 7.25841C16.7887 7.53603 17.2256 8.01759 17.4473 8.60545L18.5348 11.5054C18.7099 11.972 18.7415 12.4802 18.6257 12.9648C18.5099 13.4495 18.2519 13.8885 17.8848 14.2254L14.6498 17.1879C14.4901 17.3341 14.3712 17.5193 14.3046 17.7252C14.2379 17.9312 14.226 18.151 14.2698 18.3629L14.2998 18.4929L14.3773 18.8179C14.7806 20.3967 15.3936 21.9144 16.1998 23.3304C17.0801 24.834 18.1712 26.2037 19.4398 27.3979L19.5398 27.4879C19.7013 27.6313 19.8972 27.7304 20.1084 27.7755C20.3195 27.8206 20.5388 27.8103 20.7448 27.7454L24.9273 26.4279C25.4026 26.2787 25.9117 26.2749 26.3892 26.417C26.8667 26.5591 27.2909 26.8406 27.6073 27.2254L29.5873 29.6279C30.4123 30.6279 30.3123 32.0979 29.3648 32.9804C26.7723 35.3979 23.2073 35.8929 20.7273 33.9004C17.6861 31.4497 15.1232 28.4588 13.1673 25.0779C11.1923 21.7016 9.87657 17.982 9.28479 14.1154ZM16.8898 18.5279L19.5698 16.0679C20.3044 15.3943 20.8209 14.5165 21.053 13.5471C21.285 12.5778 21.2221 11.5613 20.8723 10.6279L19.7873 7.72795C19.3422 6.54488 18.4634 5.5756 17.3295 5.017C16.1956 4.4584 14.8916 4.35237 13.6823 4.72045C9.47479 6.00795 6.09729 9.78045 6.81229 14.4929C7.31229 17.7829 8.46479 21.9679 11.0073 26.3379C13.1176 29.9833 15.8822 33.208 19.1623 35.8504C22.8823 38.8379 27.8473 37.8179 31.0723 34.8129C31.9951 33.9537 32.5552 32.7748 32.6384 31.5167C32.7215 30.2586 32.3215 29.0161 31.5198 28.0429L29.5398 25.6379C28.9064 24.8691 28.0578 24.3071 27.1028 24.0238C26.1478 23.7405 25.13 23.7489 24.1798 24.0479L20.7073 25.1404C19.8107 24.2161 19.0253 23.1899 18.3673 22.0829C17.7323 20.9635 17.237 19.7704 16.8923 18.5304" fill="black"/>
</svg>
