<svg width="40" height="41" viewBox="0 0 40 41" fill="none" xmlns="http://www.w3.org/2000/svg">
<path d="M35 30.5538C35 31.9904 34.4293 33.3681 33.4135 34.384C32.3977 35.3998 31.0199 35.9705 29.5833 35.9705H10.4167C8.98008 35.9705 7.60233 35.3998 6.5865 34.384C5.57068 33.3681 5 31.9904 5 30.5538V11.3871C5 9.95054 5.57068 8.57279 6.5865 7.55696C7.60233 6.54114 8.98008 5.97046 10.4167 5.97046H29.5833C31.0199 5.97046 32.3977 6.54114 33.4135 7.55696C34.4293 8.57279 35 9.95054 35 11.3871V30.5538ZM32.5 30.5538V11.3871C32.5 10.6136 32.1927 9.87171 31.6457 9.32473C31.0987 8.77775 30.3569 8.47046 29.5833 8.47046H10.4167C9.64312 8.47046 8.90125 8.77775 8.35427 9.32473C7.80729 9.87171 7.5 10.6136 7.5 11.3871V30.5538C7.5 32.1638 8.80667 33.4705 10.4167 33.4705H29.5833C30.3569 33.4705 31.0987 33.1632 31.6457 32.6162C32.1927 32.0692 32.5 31.3273 32.5 30.5538ZM28.3333 13.8871C28.3333 14.1892 28.2239 14.481 28.0254 14.7087C27.8268 14.9363 27.5526 15.0844 27.2533 15.1255L27.0833 15.1371H12.9167C12.6 15.137 12.2951 15.0167 12.0637 14.8005C11.8323 14.5843 11.6915 14.2883 11.67 13.9723C11.6484 13.6564 11.7475 13.344 11.9474 13.0983C12.1472 12.8526 12.4329 12.692 12.7467 12.6488L12.9167 12.6371H27.0833C27.4149 12.6371 27.7328 12.7688 27.9672 13.0032C28.2016 13.2377 28.3333 13.5556 28.3333 13.8871ZM28.3333 28.0538C28.3333 28.3559 28.2239 28.6477 28.0254 28.8753C27.8268 29.103 27.5526 29.251 27.2533 29.2921L27.0833 29.3038H12.9167C12.6 29.3037 12.2951 29.1834 12.0637 28.9672C11.8323 28.751 11.6915 28.455 11.67 28.139C11.6484 27.823 11.7475 27.5106 11.9474 27.265C12.1472 27.0193 12.4329 26.8586 12.7467 26.8155L12.9167 26.8038H27.0833C27.4149 26.8038 27.7328 26.9355 27.9672 27.1699C28.2016 27.4043 28.3333 27.7223 28.3333 28.0538ZM28.3333 20.9705C28.3333 21.2725 28.2239 21.5644 28.0254 21.792C27.8268 22.0197 27.5526 22.1677 27.2533 22.2088L27.0833 22.2205H12.9167C12.6 22.2204 12.2951 22.1 12.0637 21.8838C11.8323 21.6676 11.6915 21.3716 11.67 21.0557C11.6484 20.7397 11.7475 20.4273 11.9474 20.1816C12.1472 19.9359 12.4329 19.7753 12.7467 19.7321L12.9167 19.7205H27.0833C27.4149 19.7205 27.7328 19.8522 27.9672 20.0866C28.2016 20.321 28.3333 20.6389 28.3333 20.9705Z" fill="black"/>
</svg>
