<svg width="40" height="41" viewBox="0 0 40 41" fill="none" xmlns="http://www.w3.org/2000/svg">
<path d="M9.408 6.39045C9.49944 6.1927 9.5238 5.9705 9.47737 5.75763C9.43095 5.54477 9.31627 5.3529 9.15079 5.21118C8.98531 5.06947 8.77808 4.98568 8.56061 4.97255C8.34314 4.95942 8.12733 5.01767 7.946 5.13845L7.942 5.14045L7.936 5.14445L7.918 5.15645L7.858 5.19645L7.654 5.34645C7.4277 5.51791 7.20757 5.69736 6.994 5.88445C6.49 6.32445 5.84 6.97845 5.378 7.75845C4.97418 8.40482 4.65047 9.09791 4.414 9.82245C4.174 10.5404 4 11.3184 4 11.9704C4 13.6764 4.632 15.1304 5.618 16.0224L5.49 16.1704C4.93 16.8584 4.604 17.7504 4.4 18.6304C4 20.3704 4 22.4624 4 23.9204V23.9704C4 29.5444 4.758 32.7064 5.592 34.5144C6.012 35.4244 6.458 36.0044 6.844 36.3684C7.038 36.5524 7.214 36.6784 7.36 36.7644C7.44521 36.8157 7.53413 36.8605 7.626 36.8984C7.626 36.8984 7.852 36.9704 8 36.9704C8.148 36.9704 8.374 36.8984 8.374 36.8984C8.46587 36.8605 8.55479 36.8157 8.64 36.7644C8.82584 36.6515 8.99886 36.5188 9.156 36.3684C9.542 36.0024 9.988 35.4244 10.408 34.5144C11.242 32.7064 12 29.5444 12 23.9704V23.9204C12 22.4604 12 20.3704 11.6 18.6304C11.396 17.7504 11.07 16.8584 10.51 16.1704L10.382 16.0224C11.368 15.1304 12 13.6764 12 11.9704C12 10.5764 11.718 9.61845 11.208 8.85245C10.9811 8.52348 10.7196 8.21975 10.428 7.94645L10.088 7.62645C9.966 7.51245 9.854 7.40845 9.708 7.26245C9.408 6.96245 9.374 6.72245 9.374 6.59645C9.37321 6.52632 9.38471 6.4566 9.408 6.39045ZM10 11.9704C10 14.1104 8.772 14.9684 8.004 14.9704H8C7.23 14.9704 6 14.1144 6 11.9704C6 11.6244 6.104 11.0764 6.312 10.4564C6.50106 9.87093 6.76241 9.31128 7.09 8.79045C7.264 8.49645 7.49 8.21045 7.734 7.94845C7.87 8.19378 8.05667 8.43711 8.294 8.67845C8.44 8.82445 8.63 9.00045 8.792 9.15245L9.04 9.38445C9.25 9.58845 9.412 9.76645 9.542 9.96445C9.782 10.3224 10 10.8644 10 11.9704ZM6.35 19.0804C6.522 18.3324 6.758 17.7804 7.04 17.4344C7.14969 17.2853 7.29406 17.1651 7.46063 17.0842C7.6272 17.0034 7.81095 16.9643 7.996 16.9704H8C8.42 16.9704 8.708 17.1264 8.96 17.4344C9.242 17.7804 9.48 18.3324 9.65 19.0804C9.996 20.5764 10 22.4564 10 23.9704C10 29.3964 9.258 32.2344 8.592 33.6764C8.372 34.1504 8.166 34.4664 8 34.6764C7.7629 34.3683 7.56411 34.0325 7.408 33.6764C6.742 32.2344 6 29.3964 6 23.9704C6 22.4564 6.004 20.5764 6.35 19.0804ZM18 26.9704C16.57 26.9704 15.208 26.6704 13.98 26.1304C14.0067 25.4184 14.02 24.6784 14.02 23.9104C15.2314 24.6051 16.6036 24.9705 18 24.9704V20.9704C18 19.9096 18.4214 18.8922 19.1716 18.142C19.9217 17.3919 20.9391 16.9704 22 16.9704H26C26.0002 15.5499 25.6221 14.1549 24.9047 12.9288C24.1872 11.7028 23.1562 10.6899 21.9176 9.99422C20.6791 9.29857 19.2776 8.94527 17.8573 8.97061C16.4369 8.99596 15.049 9.39905 13.836 10.1384C13.7113 9.46734 13.4833 8.81964 13.16 8.21845C14.6825 7.37633 16.3984 6.94604 18.1382 6.97008C19.8779 6.99412 21.5813 7.47166 23.0799 8.35552C24.5786 9.23938 25.8208 10.499 26.6836 12.0098C27.5465 13.5207 28.0002 15.2305 28 16.9704H32C33.0609 16.9704 34.0783 17.3919 34.8284 18.142C35.5786 18.8922 36 19.9096 36 20.9704V30.9704C36 32.0313 35.5786 33.0487 34.8284 33.7989C34.0783 34.549 33.0609 34.9704 32 34.9704H22C20.9391 34.9704 19.9217 34.549 19.1716 33.7989C18.4214 33.0487 18 32.0313 18 30.9704V26.9704ZM27.8 18.9704C27.4056 20.8911 26.4564 22.6539 25.07 24.0404C23.6835 25.4269 21.9207 26.3761 20 26.7704V30.9704C20 31.5009 20.2107 32.0096 20.5858 32.3847C20.9609 32.7597 21.4696 32.9704 22 32.9704H32C32.5304 32.9704 33.0391 32.7597 33.4142 32.3847C33.7893 32.0096 34 31.5009 34 30.9704V20.9704C34 20.44 33.7893 19.9313 33.4142 19.5562C33.0391 19.1812 32.5304 18.9704 32 18.9704H27.8ZM25.748 18.9704H22C21.4696 18.9704 20.9609 19.1812 20.5858 19.5562C20.2107 19.9313 20 20.44 20 20.9704V24.7184C21.3833 24.3594 22.6456 23.6372 23.6562 22.6266C24.6668 21.6161 25.389 20.3538 25.748 18.9704Z" fill="black"/>
</svg>
