<svg width="40" height="41" viewBox="0 0 40 41" fill="none" xmlns="http://www.w3.org/2000/svg">
<path d="M28.75 20.9705C29.7446 20.9705 30.6984 21.3655 31.4017 22.0688C32.1049 22.7721 32.5 23.7259 32.5 24.7205V25.9705C32.5 30.898 27.85 35.9705 20 35.9705C12.15 35.9705 7.5 30.898 7.5 25.9705V24.7205C7.5 23.7259 7.89509 22.7721 8.59835 22.0688C9.30161 21.3655 10.2554 20.9705 11.25 20.9705H28.75ZM28.75 23.4705H11.25C10.9185 23.4705 10.6005 23.6022 10.3661 23.8366C10.1317 24.071 10 24.3889 10 24.7205V25.9705C10 29.5655 13.58 33.4705 20 33.4705C26.42 33.4705 30 29.5655 30 25.9705V24.7205C30 24.3889 29.8683 24.071 29.6339 23.8366C29.3995 23.6022 29.0815 23.4705 28.75 23.4705ZM20 4.72046C21.8234 4.72046 23.572 5.44479 24.8614 6.7341C26.1507 8.02341 26.875 9.7721 26.875 11.5955C26.875 13.4188 26.1507 15.1675 24.8614 16.4568C23.572 17.7461 21.8234 18.4705 20 18.4705C18.1766 18.4705 16.428 17.7461 15.1386 16.4568C13.8493 15.1675 13.125 13.4188 13.125 11.5955C13.125 9.7721 13.8493 8.02341 15.1386 6.7341C16.428 5.44479 18.1766 4.72046 20 4.72046ZM20 7.22046C18.8397 7.22046 17.7269 7.6814 16.9064 8.50187C16.0859 9.32234 15.625 10.4351 15.625 11.5955C15.625 12.7558 16.0859 13.8686 16.9064 14.6891C17.7269 15.5095 18.8397 15.9705 20 15.9705C21.1603 15.9705 22.2731 15.5095 23.0936 14.6891C23.9141 13.8686 24.375 12.7558 24.375 11.5955C24.375 10.4351 23.9141 9.32234 23.0936 8.50187C22.2731 7.6814 21.1603 7.22046 20 7.22046Z" fill="black"/>
</svg>
